<svg width="490" height="498" version="1.1" viewBox="0 0 490 498" xmlns="http://www.w3.org/2000/svg">
    <path
        d="m0.070925 236.04v5c16.427 3.39 32.624 7.939 49 11.576 11.662 2.59 25.488 4.091 35.941 10.149 9.3281 5.406 0.3044 18.929 14.059 23.425 19.305 6.31 35.01-8.486 53-7.886 33.897 1.131 66.321 18.985 100 21.736-5.232 21.978 10.986 24.961 29 23.957 11.234-0.626 21.842-8.961 33-8.486 15.041 0.639 31.327 7.667 46 11.029 43.32 9.928 86.472 21.516 130 30.5v-6c-30.881-4.158-61.561-14.852-92-21.576-8.735-1.929-29.038-2.178-35.258-8.988-2.889-3.164-2.255-10.361-3.463-14.436-2.624-8.855-6.207-17.865-10.588-26-2.695-5.003-7.503-10.001-6.832-16 1.7-15.217 14.156-34.43 6.577-49.851-2.206-4.488-7.028-1.983-10.436-0.573-7.309 3.026-16.076 8.783-24 6.088-10.699-3.638-19.574-11.325-30-15.652-16.423-6.816-35.152-10.472-50.957-18.442-8.164-4.117-11.335-20.812-21.058-21.988-8.848-1.071-15.932 15.399-23 19.115-8.676 4.561-18.362 6.643-26.985 11.755-15.329 9.089-28.325 21.24-41.961 32.551-9.026 7.488-17.049 24.117-27.615 28.544-6.48 2.716-19.862-3.035-26.424-4.674-20.884-5.212-44.505-13.936-66-14.873m344-18c0 7.711 0.52 15.529-1.774 23-2.419 7.878-8.44 19.532-6.62 28 1.004 4.671 5.387 8.811 7.612 13 6.017 11.326 12.514 25.006 12.782 38-7.976-0.652-17.48-3.083-24.946-6.019-4.127-1.623-6.306-4.861-11.055-4.947-17.006-0.307-32.49 9.995-49.999 9.966-10.893-0.018-18.273-6.955-12.057-18 2.239-3.98 5.466-7.274 8.057-11-4.887-0.409-7.272 2.175-10 6-23.793-4.911-47.305-11.289-71-16.65-9.796-2.217-21.986-6.962-32-6.724-8.91 0.211-19.627 5.034-28 7.935-6.913 2.395-27.978 4.731-30.682-4.745-3.944-13.821 13.768-30.388 22.643-38.53 14.536-13.335 29.053-27.068 46.039-37.286 9.616-5.784 21.743-7.964 30.83-13.924 5.966-3.912 11.842-11.422 16.17-17.076 8.74 4.428 10.888 16.121 19.043 20.861 17.035 9.901 39.16 12.547 56.957 21.387 9.271 4.605 21.396 15.342 32 15.867 8.377 0.415 17.596-7.668 26-9.115m-171.77 18.029c-7.064 4.276-0.982 15.431 6.624 10.943 7.067-4.169 0.754-15.409-6.624-10.943m33.772 17.971c3.937 7.179 10.675 7.359 18 6-1.13-6.769-6.429-3.238-10.701-6.603-1.973-1.553-2.69-4.939-5.443-5.379-2.687-0.43-5.065 1.878-7.817 1.532-2.583-0.324-5.845-4.932-8.435-3.374-2.733 1.644-0.043 5.82 1.624 7.082 3.523 2.667 8.872 1.895 12.772 0.742m51.039 7.786c-7.36 2.555-5.372 14.66 2.902 11.595 6.283-2.327 4.288-14.09-2.902-11.595m-176.1 15.141c-3.435 0.026-16.201 7.417-7.8773 8.57 5.2472 0.727 15.618-8.628 7.8773-8.57m2.1713 12.004c-4.1793 0.806-8.121 9.766-2.0579 8.317 3.7285-0.89 8.1434-9.49 2.0579-8.317m24.447 6.155c-2.973 2.159-1.747 14.06 2.857 10.828 3.09-2.17 1.492-13.985-2.857-10.828m138.44 27.914c-2.914-1.164-16.198-1.387-14.248 4.736 1.996 6.273 12.954-1.344 14.248-4.736m1.584 9.086c-2.896 2.034-1.541 11.87 2.832 9.507 3.309-1.789 1.486-12.539-2.832-9.507m27.038 1c-3.778 2.674 5.126 14.881 8.785 12.738 4.57-2.677-4.235-15.957-8.785-12.738z"
        fill="#161516"
        transform="translate(0 -1)">
        <animate attributeName="opacity"
            values="1;0;1"
            dur="0.25s"
            repeatCount="indefinite" />
    </path>
    <path
        d="m129 217c-6.306-12.792-27.204-9.451-34.005 1.039-6.7798 10.458-3.911 26.35-2.9946 37.961-29.779-6.146-61.637-19.676-92-21v5l490 116v-6c-32.137-4.328-64.344-15.197-96-22.35-7.355-1.662-27.479-2.236-31.821-8.953-2.133-3.301-1.54-8.894-2.607-12.697-2.488-8.869-6.11-17.828-10.356-26-2.526-4.861-7.729-10.278-7.468-16 0.621-13.567 8.25-25.224 8.25-39 0-3.719 0.383-10.594-2.598-13.381-3.074-2.876-8.303 0.518-11.4 1.778-8.762 3.563-15.689 8.076-25 4.139-10.774-4.555-19.967-11.947-31-16.111-14.801-5.587-34.624-8.969-47.896-17.363-6.726-4.253-11.91-22.153-21.108-21.516-8.555 0.593-14.324 14.336-21.035 18.6-7.976 5.067-18.539 6.894-26.961 11.726-12.152 6.972-22.201 16.756-34 24.128m215 0c0 7.711 0.52 15.529-1.774 23-2.479 8.073-7.652 18.29-6.738 27 0.545 5.198 5.89 10.402 8.253 15 5.734 11.158 11.997 24.285 12.259 37l-40-10.431-42-11.569c-1.133-14.357-3.955-51.166 21.999-40.517 8.661 3.553 10.992 13.324 19.001 17.517-6.75-17.808-28.531-36.15-43.297-13.999-5.881 8.822-5.064 26.082-2.703 35.999-17.99-0.149-36.637-6.341-54-10.626-38.226-9.433-78-22.122-117-27.374-2.7033-14.509-4.8761-52.483 21-42.597 8.427 3.219 11.898 12.552 19 17.597l-3.187-10.985 12.187-12 28-17.706 18.83-7.233 16.17-17.076c8.738 4.427 10.88 16.144 19.043 20.86 17.052 9.853 39.16 12.547 56.957 21.388 9.271 4.605 21.396 15.342 32 15.867 8.377 0.415 17.596-7.668 26-9.115m-171.77 18.029c-7.064 4.276-0.982 15.431 6.624 10.943 7.067-4.169 0.754-15.409-6.624-10.943m33.772 17.971c3.937 7.179 10.675 7.359 18 6-1.13-6.769-6.429-3.238-10.701-6.603-1.973-1.553-2.69-4.939-5.443-5.379-2.687-0.43-5.065 1.878-7.817 1.532-2.583-0.324-5.845-4.932-8.435-3.374-2.733 1.644-0.043 5.82 1.624 7.082 3.523 2.667 8.872 1.895 12.772 0.742m51.039 7.786c-8.012 2.782-4.68 15.257 3.733 11.468 5.664-2.551 3.08-13.833-3.733-11.468z"
        fill="#161516">
        <animate attributeName="opacity"
            values="0;1;0"
            dur="0.25s"
            repeatCount="indefinite" />
    </path>
</svg>
