<?xml version="1.0" encoding="UTF-8"?>
<svg
  width="490"
  height="498"
  version="1.1"
  viewBox="0 0 490 498"
  xmlns="http://www.w3.org/2000/svg"
  xmlns:cc="http://creativecommons.org/ns#"
  xmlns:dc="http://purl.org/dc/elements/1.1/"
  xmlns:rdf="http://www.w3.org/1999/02/22-rdf-syntax-ns#"
>
  <title>catpop</title>
  <defs>
    <style>
      .fadeInOut {
        animation: fadeInOut 0.15s infinite;
      }

      .fadeOutIn {
        animation: fadeOutIn 0.15s infinite;
      }

      @keyframes fadeInOut {
        0%,
        100% {
          opacity: 1;
        }
        50% {
          opacity: 0;
        }
      }

      @keyframes fadeOutIn {
        0%,
        100% {
          opacity: 0;
        }
        50% {
          opacity: 1;
        }
      }
      .glow {
        filter: drop-shadow(16px 16px 20px red) invert(75%);
      }
    </style>
  </defs>
  <g class="glow">
    <path
      d="m210 168 17 20.667 15 4.666 49 19.834 21 11.166 6 2.667 7-2.667 19-7.333c0 7.078 0.394 14.092-1.333 21-0.97 3.877-3.415 7.111-4.334 11-0.848 3.595-0.818 7.405-1.666 11-0.697 2.95-2.419 5.852-1.5 9 1.243 4.263 5.572 8.032 7.666 12 5.766 10.924 13.167 25.353 13.167 38l-44-10c0.632 6 6.053 6.097 11 7.333 10.314 2.579 20.686 4.922 31 7.5 0 0 148.81 31.24 18-1-2.693-0.673-7.699-0.864-9.667-3-1.953-2.119-1.085-5.283-1.333-7.833-0.295-3.033-1.374-6.121-2.333-9-2.718-8.152-5.852-16.456-9.834-24-2.042-3.87-6.062-7.84-7.333-12-0.907-2.968 1.166-6.991 1.5-10 0.615-5.534 2.926-9.777 4.667-15 1.895-5.685 2.333-12.044 2.333-18 0-3.268 0.262-10.405-2.167-12.833-2.983-2.984-7.832 0.666-10.833 1.833-4.304 1.674-8.826 3.196-13 5.167-1.541 0.727-3.203 2.141-5 2.166-2.256 0.032-5.876-1.811-8-2.666-10.834-4.364-20.014-12.061-31-16.334-10.664-4.147-21.456-7.753-32-12-4.937-1.988-11.462-2.268-16-4.833-2.263-1.279-2.98-3.471-4.333-5.5-3.219-4.828-7.961-12.264-12.667-15.667-6.523-4.716-14.057 6.552-18 10.667-2.345 2.447-4.055 5.716-7 7.5-5.132 3.108-12.429 3.947-18 6.5-9.491 4.35-18.85 10.435-27 17-4.58 3.689-9.743 6.931-14 11-1.396 1.334-3.873 3.687-2.5 5.833 0.855 1.336 2.913 1.424 4.167 0.667 5.182-3.127 10.516-8.62 15.333-12.5 8.474-6.826 18.206-13.208 28-17.833 5.789-2.734 13.547-3.287 18.833-6.667 3.284-2.099 5.814-6.508 8.5-9.333 2.695-2.835 5.542-4.28 6.667-8.167m-38 66.5c-7.475 4.204-1.279 16.383 7 12 7.571-4.008 1.061-16.534-7-12m-159.29 5.8644c-4.0314-0.10337 83.286 22.38 83.286 22.38l2-5-42-10.333s-41.843-10.497-41.515-9.6202m191.51 15.209c3.086 7.818 10.971 7.295 18 6-0.215-8.162-6.528-2.501-11-6.167-2.208-1.81-1.701-6.16-5-6.5-2.857-0.294-4.882 2.974-8 2.667-3.164-0.312-5.579-6.582-8.833-4.5-2.921 1.869-0.087 6.756 1.833 8.167 3.258 2.392 9.637 1.749 13 0.333m51 7.333c-8.796 2.974-4.602 17.006 4 12.167 5.48-3.082 3.265-14.622-4-12.167m-107 11.667c0.873 8.294 18.329 7.944 25 9.333 17.706 3.689 35.449 8.113 53 12.5 9.811 2.453 20.895 6.167 31 6.167-0.853-8.099-18.343-8.669-25-10.333-19.896-4.974-39.916-9.816-60-14-7.146-1.489-16.858-5.171-24-3.667z"
    />
    <path
      class="fadeInOut"
      d="m97 262c0.7572-4.111 0.342-6.895 0-11-1.0107-12.129-2.9767-26.101 8-34.333 2.969-2.227 5.239-3.127 9-2.5 1.931 0.321 4.223 0.994 6 1.833 7.765 3.667 9.888 14.652 18 17-0.494-4.692-3.356-9.036-5.833-13-7.822-12.515-27.264-16.206-36.834-3-4.9356 6.811-4.3333 17.024-4.3333 25 0 5.921-0.7179 18.003 6 20m171 40c9.419 0 5.09-8.492 5-15-0.157-11.297-1.308-27.046 12-31.667 7.667-2.662 16.502 3.908 20.667 9.667 3.035 4.197 3.65 7.804 9.333 9-0.462-4.386-3.455-7.296-5.667-11-1.701-2.85-2.619-6.547-5.333-8.667-9.927-7.755-25.692-5.794-32.667 4.667-3.212 4.818-3.333 11.462-3.333 17z"
    />
    <path
      class="fadeInOut"
      d="m95 262c6.219 3.764 13.944 4.863 21 6.333 8.104 1.689 15.983 3.829 24 5.834 5.26 1.315 11.521 3.948 14-2.167-4.404-1.97-9.255-2.345-14-3.333-10.086-2.102-19.979-4.968-30-7.334-5.429-1.281-12.27-6.067-15 0.667m147 35 56 13.333 26 4.667c-0.638-5.898-9.99-6.859-15-7.833-16.372-3.184-32.936-6.372-49-10.834-4.901-1.361-17.231-6.442-18 0.667z"
    />
    <path
      class="fadeOutIn"
      d="m158 273c-5.719-3.461-10.13-0.382-16 1.167-11.715 3.091-21.714 6.833-34 6.833-9.8015 0-17.768-6.404-13.5-17 1.65-4.096 5.3541-7.293 7.5-11-2.6311 0-5.7908-0.559-8 1.167-6.4159 5.012-7.6729 21.93-1.6667 27.5 4.7342 4.39 10.676 4.333 16.667 4.333 12.299 0 21.5-2.833 33-6.667 5.412-1.804 12.066-2.041 16-6.333m-77 2.333c-1.9056 0.296-9.4953 3.17-10.5 4.834-1.5233 2.523 1.1927 4.63 3.5 4.5 2.7652-0.156 7.7788-1.948 9.6667-4 2.1098-2.294 0.5782-5.836-2.6667-5.334m0 13.167c-4.1895 2.186-5.0281 11.267 0.8333 8 1.4126-0.787 4.3978-3.859 4.6667-5.5 0.5158-3.146-3.4048-3.593-5.5-2.5m246 21.5v-1c-5.569-2.345-12.289-0.761-18 0.667-11.443 2.86-22.041 8.333-34 8.333-5.912 0-14.99 1.338-18.5-5-1.163-2.1-0.76-6.663-0.5-9 0.771-6.938 9.279-9.149 10-16-14.747 0-20.686 24.551-9 32.667 4.893 3.397 11.332 2.333 17 2.333 12.426 0 22.239-4.4 34-7.667 6.336-1.76 13.077-2.371 19-5.333m-219-16.5c-4.543 0.227-4.599 13.36 1 12.333 3.435-0.629 3.221-12.544-1-12.333m132 26.833c-2.396 0.533-7.149 1.633-8.5 3.834-2.12 3.453 1.609 5.303 4.5 4.5 2.242-0.623 7.295-2.061 8.833-3.834 2.989-3.443-2.123-5.102-4.833-4.5m8 9.167c-3.478 1.449-1.878 13.044 2 12.333 5.453-0.999 2.597-14.248-2-12.333m27 1c-2.323 0.363-2.805 2.656-2 4.5 1.108 2.537 6.667 11.889 10 10.5 5.044-2.102-3.525-15.699-8-15z"
    />
    <path
      class="fadeOutIn"
      d="m94 263c5.6115-0.148 6.782-5.673 9.667-10 5.409-8.114 12.087-15.459 19.333-22 4.15-3.746 8.839-5.883 9-12-6.171 0.162-8.568 4.078-13 7.833-9.903 8.39-25 22.33-25 36.167z"
    />
    <path
      d="m298 317 4 6-15 14-42 34-26.667-40-23.333-38c7.225 2.281 14.656 3.497 22 5.333 8.643 2.161 17.279 4.684 26 6.5 2.169 0.452 8.16 2.718 8.833-0.833 0.538-2.833-2.837-3.64-4.833-4.167-6.263-1.652-12.659-3.179-19-4.5-19.919-4.15-39.281-10.237-59-15.166-7.478-1.87-16.432-7.354-24-4.167-3.65 2.6956 0.65812 4.7823-7 2.833l-22-5.5c-23.029-5.757-46.249-10.048-69-17-8.4711-2.588-16.764-5.359-25-8.333-2.4526-0.886-7.3316-3.301-9.8333-1.5-4.2908 3.089 2.177 13.25 3.6666 16.5 3.9781 8.679 6.1352 18.232 9.6667 27 1.9589 4.863 5.5312 9.482 8.1667 14 1.9638 3.367 2.8919 8.324 6.3333 10.5 3.0079 1.902 6.8103 1.249 10 2.667 13.978 6.212 29.288 10.08 44 14.166 15.473 4.298 30.572 10.048 46 14.334 5.951 1.653 12.131 2.71 18 4.666 10.333 3.445 20.481 7.37 31 10 13.498 3.375 26.759 8.253 40 12.667 4.754 1.585 10.901 5.708 16 5 5.393-0.749 11.654-8.407 16-11.667 10.668-8.001 20.354-15.991 30.167-25 3.012-2.765 6.947-4.447 9.833-7.333 6.333-6.333 8.415-16.099-3-17m-104-25-1 1z"
    />
    <path
      class="fadeInOut"
      d="m105 278c2.707-0.783 4.349-3.023 7-3.833 3.159-0.966 6.902 0.15 10 0.666 6.719 1.12 13.347 2.263 20 3.834 2.294 0.541 9.752 3.198 9.5-1.667-0.163-3.149-8.263-3.805-10.5-4.333-9.337-2.205-18.394-3.667-28-3.667-6.055 0-10.742 2.489-8 9m196 43c-0.171-6.508-5.915-6.119-11-8.167-10.281-4.141-21.266-6.834-32-9.666-2.738-0.723-10.13-4.685-12.667-2.667-5.107 4.062 7.703 7.148 9.667 7.667 2.997 0.791 6.038 1.595 9 2.5 4.97 1.518 9.996 2.776 15 4.166 7.571 2.103 13.906 6.167 22 6.167z"
    />
  </g>
  <metadata>
    <rdf:RDF>
      <cc:Work rdf:about="">
        <cc:license
          rdf:resource="http://creativecommons.org/licenses/by-nc-sa/4.0/"
        />
        <dc:title>catpop</dc:title>
        <dc:creator>
          <cc:Agent>
            <dc:title>AminoffZ</dc:title>
          </cc:Agent>
        </dc:creator>
        <dc:source
          >https://twitter.com/StrayRogue/status/992994454058381312</dc:source
        >
        <dc:date>2023-10-18</dc:date>
        <dc:identifier
          >https://raw.githubusercontent.com/AminoffZ/aminoffz/main/catpop.svg</dc:identifier
        >
      </cc:Work>
      <cc:License rdf:about="http://creativecommons.org/licenses/by-nc-sa/4.0/">
        <cc:permits rdf:resource="http://creativecommons.org/ns#Reproduction" />
        <cc:permits rdf:resource="http://creativecommons.org/ns#Distribution" />
        <cc:requires rdf:resource="http://creativecommons.org/ns#Notice" />
        <cc:requires rdf:resource="http://creativecommons.org/ns#Attribution" />
        <cc:prohibits
          rdf:resource="http://creativecommons.org/ns#CommercialUse"
        />
        <cc:permits
          rdf:resource="http://creativecommons.org/ns#DerivativeWorks"
        />
        <cc:requires rdf:resource="http://creativecommons.org/ns#ShareAlike" />
      </cc:License>
    </rdf:RDF>
  </metadata>
</svg>
